# Blender 4.0.2
# www.blender.org
mtllib rock2.mtl
o Cube
v -0.996723 -0.996339 1.000749
v -1.000000 -0.709397 1.022410
v -1.000000 -0.234526 1.063182
v -1.000000 -0.999923 0.713203
v -1.000000 -0.704177 0.705641
v -1.000000 -0.239824 0.704541
v -1.000000 -1.000000 0.240500
v -1.000000 -0.702031 0.240500
v -1.000000 -0.240500 0.240500
v -0.710132 -0.990645 1.001914
v -0.691734 -0.684814 1.064494
v -0.673718 -0.209675 1.161718
v -0.704560 -1.000000 0.704820
v -0.702031 -1.000000 0.240500
v -0.108754 -0.068591 1.369193
v -0.238143 -0.981402 1.003806
v -0.222897 -0.648306 1.071965
v -0.242544 -0.210683 1.237624
v -0.240415 -1.000000 0.702450
v -0.240500 -1.000000 0.240500
v -0.837796 0.522801 1.311599
v -0.866138 0.733632 1.355079
v -0.931054 0.948128 1.420151
v -1.000000 0.289328 1.197599
v -1.000000 0.719234 1.184140
v -0.995311 1.000000 1.192963
v -1.000000 0.242727 0.707330
v -1.000000 0.706119 0.712867
v -0.998377 1.000000 0.719380
v -1.000000 0.240500 0.240500
v -1.000000 0.702031 0.240500
v -1.000000 1.000000 0.240500
v -0.647534 0.436004 1.329098
v -0.665361 0.733647 1.455548
v -0.704499 1.000000 1.517326
v -0.648669 0.185892 1.242660
v -0.702392 1.000000 1.187798
v -0.701442 1.000000 0.720087
v -0.702031 1.000000 0.240500
v -0.041813 0.901350 1.843821
v -0.039521 0.922853 1.854748
v -0.239042 0.257660 1.452382
v -0.199565 0.739971 1.691492
v -0.225296 1.000000 1.659910
v -0.412140 0.076645 1.283443
v -0.237826 1.000000 1.188903
v -0.240066 1.000000 0.721066
v -0.240500 1.000000 0.240500
v -1.000000 -1.000000 -0.240500
v -1.000000 -0.702031 -0.240500
v -1.000000 -0.240500 -0.240500
v -1.000000 -1.000000 -0.713057
v -1.000000 -0.704610 -0.704610
v -1.000000 -0.240500 -0.702031
v -1.000000 -1.000000 -1.000000
v -1.000000 -0.713057 -1.000000
v -1.000000 -0.240500 -1.000000
v -0.702031 -1.000000 -0.240500
v -0.704610 -1.000000 -0.704610
v -0.713057 -1.000000 -1.000000
v -0.704610 -0.704610 -1.000000
v -0.702031 -0.240500 -1.000000
v -0.240500 -1.000000 -0.240500
v -0.240500 -1.000000 -0.702031
v -0.240500 -1.000000 -1.000000
v -0.240500 -0.702031 -1.000000
v -0.240500 -0.240500 -1.000000
v -1.000000 0.240500 -0.240500
v -1.000000 0.702031 -0.240500
v -1.000000 1.000000 -0.240500
v -1.000000 0.240500 -0.702031
v -1.000000 0.704610 -0.704610
v -1.000000 1.000000 -0.713057
v -1.000000 0.240500 -1.000000
v -1.000000 0.713057 -1.000000
v -1.000000 1.000000 -1.000000
v -0.702031 1.000000 -0.240500
v -0.704610 1.000000 -0.704610
v -0.702031 0.240500 -1.000000
v -0.704610 0.704610 -1.000000
v -0.713057 1.000000 -1.000000
v -0.240500 1.000000 -0.240500
v -0.240500 1.000000 -0.702031
v -0.240500 0.240500 -1.000000
v -0.240500 0.702031 -1.000000
v -0.240500 1.000000 -1.000000
v 0.237111 -0.130173 1.395601
v 0.240603 -0.979503 1.009322
v 0.240026 -0.660807 1.154267
v 0.238957 -0.370329 1.286377
v 0.240538 -1.000000 0.702618
v 0.240500 -1.000000 0.240500
v 0.572334 -0.086460 1.400920
v 0.708352 -0.982345 1.008030
v 0.693710 -0.683820 1.143800
v 0.710429 -0.241679 1.300061
v 0.704574 -1.000000 0.705125
v 0.702031 -1.000000 0.240500
v 0.992123 -0.991556 1.003840
v 1.000000 -0.707932 1.040797
v 1.000000 -0.233423 1.095377
v 1.000000 -0.999894 0.713395
v 1.000000 -0.704031 0.706243
v 1.000000 -0.239607 0.705583
v 1.000000 -1.000000 0.240500
v 1.000000 -0.702031 0.240500
v 1.000000 -0.240500 0.240500
v 0.052370 0.895043 1.861875
v 0.048704 0.934870 1.871913
v 0.231558 0.277054 1.580810
v 0.219528 0.728504 1.744212
v 0.227219 1.000000 1.661550
v 0.237989 1.000000 1.188963
v 0.240117 1.000000 0.721117
v 0.240500 1.000000 0.240500
v 0.685708 0.280642 1.419309
v 0.671272 0.719663 1.516365
v 0.704900 1.000000 1.520480
v 0.837198 0.124963 1.311653
v 0.702445 1.000000 1.187875
v 0.701511 1.000000 0.720254
v 0.702031 1.000000 0.240500
v 0.867269 0.435519 1.360153
v 0.905080 0.722500 1.399956
v 0.939107 0.951665 1.429823
v 1.000000 0.252879 1.210790
v 1.000000 0.717259 1.183629
v 0.996277 1.000000 1.193278
v 1.000000 0.242950 0.708878
v 1.000000 0.705611 0.714190
v 0.998761 1.000000 0.719751
v 1.000000 0.240500 0.240500
v 1.000000 0.702031 0.240500
v 1.000000 1.000000 0.240500
v 0.240500 -1.000000 -0.240500
v 0.240500 -1.000000 -0.702031
v 0.240500 -1.000000 -1.000000
v 0.240500 -0.702031 -1.000000
v 0.240500 -0.240500 -1.000000
v 0.702031 -1.000000 -0.240500
v 0.704610 -1.000000 -0.704610
v 0.713057 -1.000000 -1.000000
v 0.704610 -0.704610 -1.000000
v 0.702031 -0.240500 -1.000000
v 1.000000 -1.000000 -0.240500
v 1.000000 -0.702031 -0.240500
v 1.000000 -0.240500 -0.240500
v 1.000000 -1.000000 -0.713057
v 1.000000 -0.704610 -0.704610
v 1.000000 -0.240500 -0.702031
v 1.000000 -1.000000 -1.000000
v 1.000000 -0.713057 -1.000000
v 1.000000 -0.240500 -1.000000
v 0.240500 1.000000 -0.240500
v 0.240500 1.000000 -0.702031
v 0.240500 0.240500 -1.000000
v 0.240500 0.702031 -1.000000
v 0.240500 1.000000 -1.000000
v 0.702031 1.000000 -0.240500
v 0.704610 1.000000 -0.704610
v 0.702031 0.240500 -1.000000
v 0.704610 0.704610 -1.000000
v 0.713057 1.000000 -1.000000
v 1.000000 0.240500 -0.240500
v 1.000000 0.702031 -0.240500
v 1.000000 1.000000 -0.240500
v 1.000000 0.240500 -0.702031
v 1.000000 0.704610 -0.704610
v 1.000000 1.000000 -0.713057
v 1.000000 0.240500 -1.000000
v 1.000000 0.713057 -1.000000
v 1.000000 1.000000 -1.000000
vn -1.0000 -0.0014 0.0013
vn -0.7042 -0.7099 0.0099
vn -0.5863 -0.6093 0.5338
vn -0.7538 -0.0932 0.6504
vn -1.0000 -0.0000 -0.0000
vn -0.7958 -0.1077 0.5959
vn -0.7071 -0.7071 -0.0000
vn -0.0886 -0.1877 0.9782
vn -0.0156 -0.7534 0.6574
vn -0.1777 -0.2157 0.9602
vn 0.0049 -0.9998 0.0173
vn -0.0000 -1.0000 -0.0000
vn -0.0932 -0.2933 0.9515
vn -0.0239 -0.7743 0.6324
vn -0.2153 -0.3462 0.9131
vn 0.0029 -0.9996 0.0277
vn -0.9485 -0.0575 0.3116
vn -0.7908 -0.1448 0.5947
vn -0.4420 -0.2278 0.8676
vn -0.5954 -0.2341 0.7686
vn -0.7300 0.6584 0.1833
vn -0.6421 0.3882 0.6610
vn -1.0000 0.0033 0.0012
vn -0.7050 0.7092 0.0017
vn -1.0000 0.0007 0.0004
vn -0.7070 0.7072 0.0006
vn -0.3767 -0.2806 0.8828
vn -0.3326 -0.3439 0.8781
vn -0.3135 0.6296 0.7109
vn -0.2667 -0.2812 0.9218
vn -0.0289 0.9992 0.0259
vn -0.0000 1.0000 -0.0000
vn -0.3698 -0.3021 0.8786
vn -0.3130 -0.3753 0.8725
vn -0.3173 0.7540 0.5751
vn -0.4090 -0.3335 0.8494
vn -0.3400 0.3970 0.8525
vn -0.3222 -0.3111 0.8941
vn -0.2711 -0.4081 0.8717
vn -0.7071 -0.0000 -0.7071
vn -0.5774 -0.5774 -0.5774
vn -0.0000 -0.7071 -0.7071
vn -0.0000 -0.0000 -1.0000
vn -0.7071 0.7071 -0.0000
vn -0.5774 0.5774 -0.5774
vn -0.0000 0.7071 -0.7071
vn -0.0625 -0.3680 0.9277
vn -0.0278 -0.8056 0.5919
vn -0.0728 -0.4120 0.9083
vn -0.0325 -0.4031 0.9146
vn -0.0004 -0.9995 0.0316
vn 0.1677 -0.3241 0.9311
vn 0.0435 -0.8035 0.5937
vn 0.3324 -0.2884 0.8980
vn 0.2436 -0.3071 0.9200
vn -0.0046 -0.9996 0.0265
vn 0.8054 -0.1574 0.5715
vn 0.5988 -0.6378 0.4843
vn 0.8789 -0.1152 0.4628
vn 0.7016 -0.7123 0.0201
vn 1.0000 -0.0035 0.0031
vn 1.0000 -0.0000 -0.0000
vn 0.7071 -0.7071 -0.0000
vn 0.2102 0.4714 0.8565
vn 0.2351 -0.2897 0.9278
vn 0.0596 -0.3302 0.9420
vn 0.2457 -0.2129 0.9457
vn 0.2728 0.8076 0.5228
vn 0.4011 -0.2178 0.8898
vn 0.3979 -0.1096 0.9108
vn 0.2886 0.7016 0.6515
vn 0.5264 -0.1900 0.8287
vn 0.0261 0.9994 0.0232
vn 0.6988 -0.1132 0.7063
vn 0.6286 -0.1368 0.7656
vn 0.6537 0.4682 0.5946
vn 0.8912 -0.0930 0.4440
vn 0.9760 -0.0305 0.2156
vn 0.7260 0.6739 0.1371
vn 1.0000 0.0026 0.0009
vn 0.7055 0.7087 0.0014
vn 1.0000 0.0005 0.0003
vn 0.7070 0.7072 0.0005
vn 0.5774 -0.5774 -0.5774
vn 0.7071 -0.0000 -0.7071
vn 0.7071 0.7071 -0.0000
vn 0.5774 0.5774 -0.5774
s 1
f 5//1 4//2 1//3 2//4
f 6//5 5//1 2//4 3//6
f 8//5 7//7 4//2 5//1
f 9//5 8//5 5//1 6//5
f 11//8 2//4 1//3 10//9
f 12//10 3//6 2//4 11//8
f 4//2 13//11 10//9 1//3
f 7//7 14//12 13//11 4//2
f 17//13 11//8 10//9 16//14
f 18//15 12//10 11//8 17//13
f 13//11 19//16 16//14 10//9
f 14//12 20//12 19//16 13//11
f 25//17 24//18 21//19 22//20
f 26//21 25//17 22//20 23//22
f 27//5 6//5 3//6 24//18
f 28//23 27//5 24//18 25//17
f 29//24 28//23 25//17 26//21
f 30//5 9//5 6//5 27//5
f 31//25 30//5 27//5 28//23
f 32//26 31//25 28//23 29//24
f 34//27 22//20 21//19 33//28
f 35//29 23//22 22//20 34//27
f 36//30 24//18 3//6 12//10
f 24//18 36//30 33//28 21//19
f 37//31 26//21 23//22 35//29
f 38//32 29//24 26//21 37//31
f 39//32 32//26 29//24 38//32
f 43//33 34//27 33//28 42//34
f 44//35 43//33 40//36 41//37
f 44//35 35//29 34//27 43//33
f 45//38 18//15 15//39 42//34
f 45//38 36//30 12//10 18//15
f 36//30 45//38 42//34 33//28
f 46//32 37//31 35//29 44//35
f 47//32 38//32 37//31 46//32
f 48//32 39//32 38//32 47//32
f 50//5 49//7 7//7 8//5
f 51//5 50//5 8//5 9//5
f 53//5 52//7 49//7 50//5
f 54//5 53//5 50//5 51//5
f 56//40 55//41 52//7 53//5
f 57//40 56//40 53//5 54//5
f 49//7 58//12 14//12 7//7
f 52//7 59//12 58//12 49//7
f 55//41 60//42 59//12 52//7
f 56//40 61//43 60//42 55//41
f 57//40 62//43 61//43 56//40
f 58//12 63//12 20//12 14//12
f 59//12 64//12 63//12 58//12
f 60//42 65//42 64//12 59//12
f 61//43 66//43 65//42 60//42
f 62//43 67//43 66//43 61//43
f 68//5 51//5 9//5 30//5
f 69//5 68//5 30//5 31//25
f 70//44 69//5 31//25 32//26
f 71//5 54//5 51//5 68//5
f 72//5 71//5 68//5 69//5
f 73//44 72//5 69//5 70//44
f 74//40 57//40 54//5 71//5
f 75//40 74//40 71//5 72//5
f 76//45 75//40 72//5 73//44
f 77//32 70//44 32//26 39//32
f 78//32 73//44 70//44 77//32
f 74//40 79//43 62//43 57//40
f 75//40 80//43 79//43 74//40
f 76//45 81//46 80//43 75//40
f 81//46 76//45 73//44 78//32
f 82//32 77//32 39//32 48//32
f 83//32 78//32 77//32 82//32
f 79//43 84//43 67//43 62//43
f 80//43 85//43 84//43 79//43
f 81//46 86//46 85//43 80//43
f 86//46 81//46 78//32 83//32
f 89//47 17//13 16//14 88//48
f 90//49 18//15 17//13 89//47
f 18//15 90//49 87//50 15//39
f 19//16 91//51 88//48 16//14
f 20//12 92//12 91//51 19//16
f 95//52 89//47 88//48 94//53
f 96//54 90//49 89//47 95//52
f 90//49 96//54 93//55 87//50
f 91//51 97//56 94//53 88//48
f 92//12 98//12 97//56 91//51
f 100//57 95//52 94//53 99//58
f 101//59 96//54 95//52 100//57
f 97//56 102//60 99//58 94//53
f 102//60 103//61 100//57 99//58
f 103//61 104//62 101//59 100//57
f 98//12 105//63 102//60 97//56
f 105//63 106//62 103//61 102//60
f 106//62 107//62 104//62 103//61
f 109//64 41//37 40//36 108//65
f 110//66 42//34 15//39 87//50
f 111//67 43//33 42//34 110//66
f 43//33 111//67 108//65 40//36
f 111//67 112//68 109//64 108//65
f 112//68 44//35 41//37 109//64
f 113//32 46//32 44//35 112//68
f 114//32 47//32 46//32 113//32
f 115//32 48//32 47//32 114//32
f 116//69 110//66 87//50 93//55
f 117//70 111//67 110//66 116//69
f 118//71 112//68 111//67 117//70
f 96//54 119//72 116//69 93//55
f 120//73 113//32 112//68 118//71
f 121//32 114//32 113//32 120//73
f 122//32 115//32 114//32 121//32
f 124//74 117//70 116//69 123//75
f 125//76 118//71 117//70 124//74
f 126//77 119//72 96//54 101//59
f 119//72 126//77 123//75 116//69
f 126//77 127//78 124//74 123//75
f 127//78 128//79 125//76 124//74
f 128//79 120//73 118//71 125//76
f 104//62 129//62 126//77 101//59
f 129//62 130//80 127//78 126//77
f 130//80 131//81 128//79 127//78
f 131//81 121//32 120//73 128//79
f 107//62 132//62 129//62 104//62
f 132//62 133//82 130//80 129//62
f 133//82 134//83 131//81 130//80
f 134//83 122//32 121//32 131//81
f 63//12 135//12 92//12 20//12
f 64//12 136//12 135//12 63//12
f 65//42 137//42 136//12 64//12
f 66//43 138//43 137//42 65//42
f 67//43 139//43 138//43 66//43
f 135//12 140//12 98//12 92//12
f 136//12 141//12 140//12 135//12
f 137//42 142//42 141//12 136//12
f 138//43 143//43 142//42 137//42
f 139//43 144//43 143//43 138//43
f 140//12 145//63 105//63 98//12
f 145//63 146//62 106//62 105//63
f 146//62 147//62 107//62 106//62
f 141//12 148//63 145//63 140//12
f 148//63 149//62 146//62 145//63
f 149//62 150//62 147//62 146//62
f 142//42 151//84 148//63 141//12
f 151//84 152//85 149//62 148//63
f 143//43 152//85 151//84 142//42
f 152//85 153//85 150//62 149//62
f 144//43 153//85 152//85 143//43
f 154//32 82//32 48//32 115//32
f 155//32 83//32 82//32 154//32
f 84//43 156//43 139//43 67//43
f 85//43 157//43 156//43 84//43
f 86//46 158//46 157//43 85//43
f 158//46 86//46 83//32 155//32
f 159//32 154//32 115//32 122//32
f 160//32 155//32 154//32 159//32
f 156//43 161//43 144//43 139//43
f 157//43 162//43 161//43 156//43
f 158//46 163//46 162//43 157//43
f 163//46 158//46 155//32 160//32
f 147//62 164//62 132//62 107//62
f 164//62 165//62 133//82 132//62
f 165//62 166//86 134//83 133//82
f 166//86 159//32 122//32 134//83
f 150//62 167//62 164//62 147//62
f 167//62 168//62 165//62 164//62
f 168//62 169//86 166//86 165//62
f 169//86 160//32 159//32 166//86
f 153//85 170//85 167//62 150//62
f 161//43 170//85 153//85 144//43
f 170//85 171//85 168//62 167//62
f 162//43 171//85 170//85 161//43
f 171//85 172//87 169//86 168//62
f 163//46 172//87 171//85 162//43
f 172//87 163//46 160//32 169//86
